<?xml version="1.0" encoding="utf-8"?>
<!-- Generator: Adobe Illustrator 23.0.1, SVG Export Plug-In . SVG Version: 6.00 Build 0)  -->
<svg version="1.1" xmlns="http://www.w3.org/2000/svg" xmlns:xlink="http://www.w3.org/1999/xlink" x="0px" y="0px"
	 viewBox="0 0 100 100" style="enable-background:new 0 0 100 100;" xml:space="preserve">
<style type="text/css">
	.st0{fill:#FFFFFF;stroke:#013A2A;stroke-width:5;stroke-miterlimit:10;}
	.st1{fill:none;stroke:#013A2A;stroke-width:5;stroke-miterlimit:10;}
</style>
<g id="Layer_1">
	<circle class="st0" cx="50" cy="50" r="46.41"/>
</g>
<g id="Layer_3">
	<path class="st1" d="M79.1,14.3c-1.34,0.29-3.35,0.58-5.75,0.36c-2.56-0.23-3.22-0.83-6.03-1.06c-2.54-0.21-4.59-0.38-6.38,0.83
		c-1.69,1.14-2.34,2.97-2.6,3.95c-4.75-0.02-8.43,2.35-9.84,3.74c-3.04,2.99-5.79,4.26-6.4,4.28c-0.7,0.02-5.46-2.11-7.47-3.02
		c-3.86-1.76-9.83-0.81-13.72,2.06c-0.87,0.65-2.74,2.06-3.81,4.63c-0.96,2.31-0.8,4.41-0.71,5.34c0.18,2.04,0.73,2.45,1.7,5.87
		c0.28,0.98,1.26,3.57,1.61,5.27c0.33,1.6,0.94,4.92,0.91,7.66c-0.02,1.6,0.16,3.75-0.55,6.37c-0.83,3.06-2.21,4.77-1.75,5.16
		c0.46,0.39,1.73-1.32,4.49-2.22c2.07-0.67,2.99-0.24,6.21-0.49c1.37-0.1,3.39-0.35,5.86-1.01c0.34,0.82,0.89,2.04,1.71,3.45
		c1.55,2.67,3.21,4.56,5.31,6.92c2.32,2.6,2.42,2.4,3.43,3.81c1.45,2.02,1.46,2.75,3.08,5.36c1.97,3.18,2.96,4.77,4.14,4.75
		c1.49-0.03,2.57-2.4,4.49-6.61c0.61-1.35,1.16-2.85,2.27-5.85c1.44-3.92,1.58-5.55,1.92-7.9c0,0,0.23-2.04,0.55-4.67
		c0.19-1.54,0.48-2.79,0.71-3.62c1,0.85,2.75,1.78,4.98,2.61c1.72,0.63,3.67,0.95,5.5,1.02c3.64,0.14,5.21-0.59,6.73-1.73
		c0.6-0.45,0.79-0.83,0.84-1.16c0.12-0.87-0.76-1.52-1.57-2.42c0,0-1.56-1.72-2.47-4.42c-0.51-1.51-0.29-2.33-0.23-4.9
		c0,0,0.08-3.48-0.38-7.4c-0.11-0.9-0.57-4.52-2.37-8.74c-1.38-3.24-2.6-5.93-5.28-8.34c-2.78-2.5-7.62-3.68-9.88-3.83"/>
</g>
</svg>
